<?xml version="1.0" encoding="utf-8"?>
<!-- Generator: Adobe Illustrator 26.1.0, SVG Export Plug-In . SVG Version: 6.00 Build 0)  -->
<svg version="1.1" id="Calque_1" xmlns="http://www.w3.org/2000/svg" xmlns:xlink="http://www.w3.org/1999/xlink" x="0px" y="0px"
	 viewBox="0 0 824.7 863" style="enable-background:new 0 0 824.7 863;" xml:space="preserve">
<style type="text/css">
	.st0{fill:#082A3F;}
	.st1{fill:#0A5775;}
	.st2{fill:#648947;}
	.st3{fill:#82146B;}
	.st4{fill:#234738;}
</style>
<path class="st0" d="M545.5,380.5c-10.9-11.9-23.6-22.3-33.7-34.7c-13.8-16.9-26.6-34.6-38.4-52.9c-5.5-8.6-8.2-19.2-10.8-29.3
	c-1.4-5.3-1.5-10.9-1.9-16.5h-26.6l-89.7,19.7l-56.3,29.7c-1.7,3.1-3.2,6.2-4.8,9.3c-12.4,25.6-24.1,51.6-36.3,77.3
	c-7,14.9-14.5,29.6-25.2,42.4c-9.5,11.2-21.1,17.5-36.1,16.9c-2-0.1-3.9-0.1-5.9-0.2l-0.9,243.2c9.5-9.4,119.6-49.6,143.3-88.9
	c14.5-24.1,32.3-45.8,37.5-74.2c2.1-11.5,3.5-23.1,5.6-34.5c2.4-12.9,4.8-25.8,8.1-38.5c1.8-6.9,6.1-12.5,13.2-15.4
	c10-4,20.1-5.3,30.8-3.7c11.3,1.7,22.7,3.4,34.1,3.8c14.4,0.5,28.9-0.8,43.3-0.3c7.3,0.3,14.5,2.9,21.7,4.3c6.5,1.3,12.9,3,19.4,3.5
	c4.5,0.3,8.4-2.3,9.6-7.2c0.6-2.4,1.6-3.4,4.2-3.7c7.3-0.8,11.9-5.6,13.6-12.7c0.4-1.9,1.9-3.5,2.8-5.3c0-2,0-4,0-6
	C559.3,397.8,553,388.6,545.5,380.5z M442.5,343c-7.9,8.7-21.4,9.3-30.1,1.4c-8.7-7.9-9.3-21.4-1.4-30.1c7.9-8.7,21.4-9.3,30.1-1.4
	C449.8,320.8,450.4,334.3,442.5,343z"/>
<path class="st4" d="M199.3,217c21.3-13.5,41.2-26.1,61.1-38.7c23.8-15.1,47.7-30,71.5-45.2c4.6-3,9.1-4.3,14.7-3.6
	c50.5,6.4,101.1,12.7,151.7,18.9c1,0.1,2,0.3,4.4,0.7c-10.5,6.7-20.2,12.9-29.8,18.9c-35.3,22.3-70.6,44.6-106,66.8
	c-1.9,1.2-4.7,2-6.9,1.8c-31.7-3.7-63.4-7.7-95.2-11.6c-0.6-0.1-1.2-0.3-3-0.9c10.6-4.2,20.1-7.9,29.6-11.7
	c13.2-5.2,26.4-10.5,39.7-15.5c6.3-2.4,12.2-5.9,19.7-2.6c4.4,1.9,10.2-3.2,11.5-8.4c1.4-5.5-1.4-11.4-6.4-13.6
	c-4.7-2.1-11.8-0.6-13.8,4.1c-2.1,5.2-6.2,6.8-10.6,8.6c-30,11.7-60,23.4-90,35c-1.5,0.6-3.2,1.5-4.8,1.4
	C224.7,220.1,212.7,218.6,199.3,217z"/>
<path class="st4" d="M243.4,224.7c3.9-0.9,7.1-1.6,10.9-2.4c0.6,2.5,1,4.7,1.5,6.9c6.4,28.6,12.7,57.2,19.3,85.7
	c0.7,3.1,2.9,6.2,5.1,8.6c4,4.2,5,10.2,1.7,14.8c-3,4.1-9.6,5.6-14.1,3.1c-5-2.7-6.7-8.5-4.8-14.1c1.1-3.1,1.6-6.8,1-10
	c-6.1-28.4-12.6-56.8-18.9-85.2C244.6,229.9,244.1,227.7,243.4,224.7z"/>
<path class="st4" d="M265.3,236.5c15.8,1.9,30.2,3.7,44.7,5.4c16.6,2.1,33.1,4.5,49.8,6c4.1,0.4,9.1-1.2,12.7-3.4
	c24.9-15.3,49.6-31,74.3-46.6c1.4-0.9,2.8-1.6,4.9-2.7c2.1,9.4,4,18.1,6,26.8c2.4,10.8,4.5,21.7,7.4,32.4c1.7,6.4,0.1,11.4-3.9,16.2
	c-8.7,10.5-20,17.7-32,23.8c-38.8,19.6-79.6,27.4-122.8,20.1c-4.3-0.7-8.6-1.9-12.7-3.3c-8.7-2.9-14.2-8-15.9-17.9
	C274.4,274.5,269.7,256.1,265.3,236.5z"/>
</svg>
