<?xml version="1.0" encoding="utf-8"?>
<!-- Generator: Adobe Illustrator 26.1.0, SVG Export Plug-In . SVG Version: 6.00 Build 0)  -->
<svg version="1.1" id="Calque_1" xmlns="http://www.w3.org/2000/svg" xmlns:xlink="http://www.w3.org/1999/xlink" x="0px" y="0px"
	 viewBox="0 0 824.7 863" style="enable-background:new 0 0 824.7 863;" xml:space="preserve">
<style type="text/css">
	.st0{fill:#082A3F;}
	.st1{fill:#0A5775;}
	.st2{fill:#648947;}
	.st3{fill:#82146B;}
	.st4{fill:#234738;}
</style>
<path class="st0" d="M659.1,580.9c1.8-0.9,3.2-1.6,5.1-2.6c3.8,5,7.7,10,12.1,15.7c-27.7,21-55.2,41.9-82.9,62.9
	c-4.1-5.4-7.9-10.5-12-15.8c1.3-1.4,2.5-2.6,3.5-3.6c-4.1-5.8-7.9-11.4-11.8-16.9c-6.4-9-5.3-18.1,3.4-24.8
	c15.1-11.6,30.3-23.1,45.5-34.6c8.7-6.5,18.2-5.1,24.9,3.4C650.8,569.9,654.7,575.1,659.1,580.9z"/>
<path class="st0" d="M587.8,507.2c-18.8-23.3-45.6-40.6-62.2-65c-19.1-28.2-51.3-52.6-45.3-92.5c12.2-81.3-3.5-111.5-78.9-143.9
	c-14.9-6.4-30.5-11.1-45.1-18c-41-19.4-69-50.3-78.9-95.4c-2-8.9-1.1-18.5-1.3-27.8c-0.2-7.8,0-15.6,0-23.4
	c-16.9,54.2-11.3,104.2,35.6,140.3c22.7,17.4,49,30.7,74.8,43.3c54.2,26.6,67.5,48.9,57.9,107.3c-1.6,9.4-9.9,24.6-16,25.1
	c-13.2,1-28.5-3.4-40.2-10.2c-9.2-5.3-12.8-20.1-21.8-26.1c-8.6-5.7-21-5.5-31.8-7.9c-1.8,9.5-4.8,19-5.2,28.6
	c-1.4,31.7,9.2,57.3,49.4,72.4c-48-2-52.4,36.7-74.9,53.8c-23.4,17.8-45.9,29.3-72.8,50.9v201.1l44.9-21.5
	c23.9-11.4,44.6-15.8,57.1-28.4c30-30.1,55.8-64.4,84.2-96.1c7.5-8.4,19.3-20.3,27.6-19.2c35.3,4.7,70.9,10.9,104.6,21.9
	c27.9,9,45.1-7.4,56.1-23.1C610.9,545.6,598.1,520.1,587.8,507.2z M461.4,459.4c-8.3,9.1-22.5,9.8-31.6,1.5
	c-9.1-8.3-9.8-22.5-1.5-31.6s22.5-9.8,31.6-1.5C469,436.1,469.7,450.3,461.4,459.4z"/>
<path class="st3" d="M100.3,720.8c39.6,0,79,0,118.4,0V589.1c-42.5,0-85,0-128.5,0c12.8-17.7,23.6-33.8,35.8-48.9
	c2.9-3.6,9.9-4.9,15.1-5.4c25.9-2.5,51.7-3.7,77.6-3.6v-11.4c-28-0.2-56.1,1.4-84.1,4.9c-7.5,0.9-15.8,6.5-20.9,12.3
	c-9.4,10.7-16.6,23.3-25.1,34.9c-2,2.8-5.3,4.5-10.1,8.4c0-6.7,0.6-10.1-0.2-13.1c-0.6-2.2-3.2-5.7-4.7-5.6
	c-7.7,0.8-15.6,1.6-22.8,4.1c-6.5,2.2-7.9,8.5-3.3,13.5c3.4,3.7,8.7,6.4,13.7,7.9c5.1,1.6,10.8,1.1,17.5,1.7
	c-2.2,4.2-3.8,7.3-5.4,10.4c-10.6,21-21.8,42.2-23.3,66.1c-1.6,24.7-0.6,49.6-0.5,74.5c0,6.5,3.5,10.4,10.3,10.4
	c9.8,0,19.6,0,29.4,0c7.8,0,11.2-4.1,11.2-11.6C100.2,732.9,100.3,727.1,100.3,720.8z M88.1,653.7c-9.4-1.3-12.1-5.1-11.3-15.7
	c0.6-8.3,3.1-10.2,16.3-9.8c15.9,1.3,33.8,5.5,46.9,20.8c2.1,2.4,2.6,6.2,3.9,9.3c-3,0.5-6.2,1.7-9.1,1.4
	C119.2,657.9,103.6,655.8,88.1,653.7z"/>
</svg>
